<?xml version="1.0" encoding="utf-8"?>
<!-- Generator: Adobe Illustrator 17.1.0, SVG Export Plug-In . SVG Version: 6.00 Build 0)  -->
<!DOCTYPE svg PUBLIC "-//W3C//DTD SVG 1.1//EN" "http://www.w3.org/Graphics/SVG/1.1/DTD/svg11.dtd">
<svg version="1.1" id="Layer_1" xmlns="http://www.w3.org/2000/svg" xmlns:xlink="http://www.w3.org/1999/xlink" x="0px" y="0px"
	 viewBox="0 0 200 65" enable-background="new 0 0 200 65" xml:space="preserve">
<g>
	<g>
		<path fill="#0D2039" d="M0.5,15h2.8v4c1.1-1.5,2.4-2.7,3.8-3.4c1.4-0.8,3-1.1,4.8-1.1c3.1,0,5.7,1.1,7.9,3.3
			c2.2,2.2,3.3,4.9,3.3,8c0,3.2-1.1,5.9-3.3,8.1c-2.2,2.2-4.8,3.3-7.9,3.3c-1.7,0-3.3-0.4-4.8-1.1c-1.4-0.7-2.8-1.8-3.9-3.2v11.7
			H0.5L0.5,15L0.5,15z M11.6,17.2c-2.4,0-4.4,0.8-6.1,2.5c-1.7,1.7-2.5,3.8-2.5,6.3c0,1.6,0.4,3.1,1.1,4.4s1.8,2.4,3.2,3.1
			s2.8,1.2,4.3,1.2c1.5,0,2.9-0.4,4.2-1.2s2.4-1.9,3.2-3.3c0.8-1.4,1.2-2.9,1.2-4.4c0-1.5-0.4-3-1.2-4.4s-1.8-2.5-3.1-3.2
			C14.6,17.5,13.2,17.2,11.6,17.2z"/>
		<path fill="#0D2039" d="M43.9,29.5l2.4,1.2c-0.8,1.5-1.7,2.7-2.7,3.7c-1,0.9-2.1,1.6-3.4,2.1c-1.3,0.5-2.7,0.7-4.3,0.7
			c-3.5,0-6.3-1.2-8.3-3.5c-2-2.3-3-4.9-3-7.9c0-2.8,0.8-5.2,2.5-7.4c2.1-2.7,5-4.1,8.6-4.1c3.7,0,6.7,1.4,8.9,4.2
			c1.6,2,2.4,4.5,2.4,7.4H27.4c0.1,2.5,0.9,4.6,2.4,6.2c1.6,1.6,3.5,2.4,5.8,2.4c1.1,0,2.2-0.2,3.2-0.6c1-0.4,1.9-0.9,2.7-1.5
			C42.2,32,43,30.9,43.9,29.5z M43.9,23.7c-0.4-1.5-0.9-2.7-1.6-3.6c-0.7-0.9-1.7-1.6-2.8-2.2c-1.2-0.5-2.4-0.8-3.7-0.8
			c-2.1,0-4,0.7-5.5,2.1c-1.1,1-2,2.5-2.5,4.5C27.7,23.7,43.9,23.7,43.9,23.7z"/>
		<path fill="#0D2039" d="M49.5,15h2.8v4c1.1-1.5,2.4-2.7,3.8-3.4c1.4-0.8,3-1.1,4.8-1.1c3.1,0,5.7,1.1,7.9,3.3
			c2.2,2.2,3.3,4.9,3.3,8c0,3.2-1.1,5.9-3.3,8.1c-2.2,2.2-4.8,3.3-7.9,3.3c-1.7,0-3.3-0.4-4.8-1.1c-1.4-0.7-2.8-1.8-3.9-3.2v11.7
			h-2.8L49.5,15L49.5,15z M60.7,17.2c-2.4,0-4.4,0.8-6.1,2.5c-1.7,1.7-2.5,3.8-2.5,6.3c0,1.6,0.4,3.1,1.1,4.4s1.8,2.4,3.2,3.1
			c1.4,0.8,2.8,1.2,4.3,1.2c1.5,0,2.9-0.4,4.2-1.2c1.3-0.8,2.4-1.9,3.2-3.3c0.8-1.4,1.2-2.9,1.2-4.4c0-1.5-0.4-3-1.2-4.4
			s-1.8-2.5-3.1-3.2C63.7,17.5,62.3,17.2,60.7,17.2z"/>
	</g>
	<g>
		<path fill="#0D2039" d="M91.2,14.1h5.5v21.8h-5.5v-2.3c-1.1,1-2.1,1.7-3.2,2.2c-1.1,0.4-2.2,0.7-3.5,0.7c-2.8,0-5.3-1.1-7.3-3.3
			c-2.1-2.2-3.1-4.9-3.1-8.1c0-3.4,1-6.1,3-8.3c2-2.2,4.4-3.2,7.2-3.2c1.3,0,2.5,0.2,3.7,0.7c1.1,0.5,2.2,1.2,3.2,2.2V14.1
			L91.2,14.1z M85.4,18.6c-1.7,0-3.1,0.6-4.2,1.8s-1.7,2.7-1.7,4.6c0,1.9,0.6,3.4,1.7,4.6c1.1,1.2,2.5,1.8,4.2,1.8
			c1.7,0,3.1-0.6,4.3-1.8c1.1-1.2,1.7-2.8,1.7-4.7c0-1.9-0.6-3.4-1.7-4.6C88.6,19.2,87.1,18.6,85.4,18.6z"/>
		<path fill="#0D2039" d="M115.6,14.1h5.5v18.7c0,3.7-0.7,6.4-2.2,8.1c-2,2.4-5,3.5-9,3.5c-2.1,0-3.9-0.3-5.4-0.8
			c-1.5-0.5-2.7-1.3-3.7-2.4c-1-1-1.7-2.3-2.2-3.8h6c0.5,0.6,1.2,1.1,2.1,1.4c0.8,0.3,1.8,0.5,3,0.5c1.5,0,2.7-0.2,3.5-0.7
			c0.9-0.5,1.5-1,1.9-1.8c0.4-0.7,0.6-2,0.6-3.7c-1,1-2,1.7-3,2.1c-1.1,0.4-2.3,0.6-3.6,0.6c-2.9,0-5.4-1.1-7.4-3.2
			c-2-2.1-3-4.8-3-8c0-3.5,1.1-6.2,3.2-8.3c1.9-1.9,4.2-2.8,6.9-2.8c1.3,0,2.4,0.2,3.6,0.7s2.2,1.2,3.4,2.3V14.1L115.6,14.1z
			 M109.9,18.6c-1.7,0-3.1,0.6-4.3,1.7c-1.1,1.2-1.7,2.6-1.7,4.4c0,1.8,0.6,3.3,1.7,4.5c1.1,1.2,2.6,1.7,4.3,1.7
			c1.7,0,3.1-0.6,4.2-1.7c1.1-1.1,1.7-2.6,1.7-4.5c0-1.8-0.6-3.3-1.7-4.4C113.1,19.2,111.7,18.6,109.9,18.6z"/>
	</g>
	<g>
		<path fill="#0D2039" d="M166.2,14.1h4.7v2.7c0.5-1.1,1.2-1.9,2-2.5c0.8-0.6,1.8-0.8,2.8-0.8c0.7,0,1.5,0.2,2.2,0.6l-1.7,4.7
			c-0.6-0.3-1.2-0.5-1.6-0.5c-0.8,0-1.6,0.5-2.1,1.6c-0.6,1-0.9,3.1-0.9,6.1l0,1.1v8.8h-5.4L166.2,14.1L166.2,14.1z"/>
		<path fill="#0D2039" d="M194.1,14.1h5.5v21.8h-5.5v-2.3c-1.1,1-2.1,1.7-3.2,2.2c-1.1,0.4-2.2,0.7-3.5,0.7c-2.8,0-5.3-1.1-7.3-3.3
			C178,31,177,28.3,177,25c0-3.4,1-6.1,3-8.3c2-2.2,4.4-3.2,7.2-3.2c1.3,0,2.5,0.2,3.7,0.7s2.2,1.2,3.2,2.2V14.1z M188.3,18.6
			c-1.7,0-3.1,0.6-4.2,1.8c-1.1,1.2-1.7,2.7-1.7,4.6c0,1.9,0.6,3.4,1.7,4.6c1.1,1.2,2.5,1.8,4.2,1.8c1.7,0,3.1-0.6,4.3-1.8
			c1.1-1.2,1.7-2.8,1.7-4.7c0-1.9-0.6-3.4-1.7-4.6C191.5,19.2,190,18.6,188.3,18.6z"/>
	</g>
	<g>
		
			<linearGradient id="SVGID_1_" gradientUnits="userSpaceOnUse" x1="-2166.6704" y1="-1060.1282" x2="-2149.2686" y2="-1081.1421" gradientTransform="matrix(-1 0 0 -1 -2006.832 -1051.11)">
			<stop  offset="0" style="stop-color:#32C3F1"/>
			<stop  offset="0.5" style="stop-color:#2AACE3"/>
			<stop  offset="1" style="stop-color:#1B96D3"/>
		</linearGradient>
		<path fill="url(#SVGID_1_)" d="M123.8,26.5c0.1,0.5,0.1,1.2,0.2,1.8c0.4,2,0.5,2.1,0.9,3.2c0.3,0.9,0.9,2,1.3,2.8l0.6,1.1
			c6.6,9,30.8,0.2,34.8-2.5c0.2-0.5,0.5-1.2,0.7-1.8c0.5-1.8,0.6-1.9,0.8-3.2c0.1-0.6,0.2-1.5,0.2-2.1
			C140.6,36,124.5,34.4,123.8,26.5"/>
		
			<linearGradient id="SVGID_2_" gradientUnits="userSpaceOnUse" x1="-2172.658" y1="-1065.0856" x2="-2155.2556" y2="-1086.0996" gradientTransform="matrix(-1 0 0 -1 -2006.832 -1051.11)">
			<stop  offset="0" style="stop-color:#64C18B"/>
			<stop  offset="0.5" style="stop-color:#04A54F"/>
			<stop  offset="1" style="stop-color:#04924C"/>
		</linearGradient>
		<path fill="url(#SVGID_2_)" d="M131.5,40.5c0.4,0.3,0.9,0.7,1.3,0.9c1.7,1,1.8,1,2.9,1.5c1.7,0.7,1.9,0.7,3.1,1
			c0.5,0.1,1.1,0.2,1.6,0.3c6.3,0.8,12.6-2.1,13.8-2.8l0.2-0.1c0.5-0.3,0.5-0.3,0.8-0.6c0.6-0.4,0.6-0.4,0.9-0.7
			c0.7-0.6,1.7-1.4,2.8-2.9C156.5,39,139.2,45.7,131.5,40.5"/>
		
			<linearGradient id="SVGID_3_" gradientUnits="userSpaceOnUse" x1="318.367" y1="-1061.1506" x2="343.039" y2="-1061.1506" gradientTransform="matrix(1 0 0 -1 -188 -1051.11)">
			<stop  offset="0" style="stop-color:#D85327"/>
			<stop  offset="0.5" style="stop-color:#EC5724"/>
			<stop  offset="1" style="stop-color:#F15F22"/>
		</linearGradient>
		<path fill="url(#SVGID_3_)" d="M134.4,8.1c-3.1,1.2-5.7,4.5-2.8,5.9c1.7,0.8,5.2,0.7,9.4-0.2c5.8-1.3,12-4.1,13.7-5
			c0.2-0.1,0.3-0.1,0.3-0.1l-0.8-0.5c-1.7-1-1.8-1-2.8-1.5c-1.8-0.7-1.9-0.7-3-1c-3,2.1-14.9,5.9-14.5,3.3
			C134,8.5,134.3,8.2,134.4,8.1"/>
		
			<linearGradient id="SVGID_4_" gradientUnits="userSpaceOnUse" x1="-2161.5171" y1="-1055.8611" x2="-2144.1155" y2="-1076.8748" gradientTransform="matrix(-1 0 0 -1 -2006.832 -1051.11)">
			<stop  offset="0" style="stop-color:#FEE7A3"/>
			<stop  offset="0.5" style="stop-color:#FFCB0A"/>
			<stop  offset="1" style="stop-color:#F8AC1C"/>
		</linearGradient>
		<path fill="url(#SVGID_4_)" d="M132.3,8.6c-0.5,0.2-0.9,0.5-1.3,0.8c-0.8,0.7-1.8,1.5-3.1,3.2c-0.6,0.8-1.3,1.7-1.9,3
			c-0.7,1.5-0.8,1.7-1.3,3.1c-1.8,6.4,3.7,7.9,8.6,8c11.4,0.3,23.6-4.7,28.1-6.6c1-0.4,1-0.4,1.2-0.5l-0.4-1.3
			c-0.8-1.9-0.8-2-1.4-3.1c-0.5-0.8-1.2-1.9-1.7-2.6c-0.3,0.1-0.3,0.1-1.3,0.5c-3.9,1.7-14.1,6.1-22.7,6.2c-6.7,0.1-9.4-2.3-7.1-6.3
			C128.9,11.4,130.5,9.8,132.3,8.6"/>
	</g>
</g>
<g>
	<path fill="#727272" d="M1.1,59.8h-1.2v-9.1h1.2V59.8z"/>
	<path fill="#727272" d="M11.7,51.8h-1.2v-1.2h1.2V51.8z M11.7,59.8h-1.2v-6.3h1.2V59.8z"/>
	<path fill="#727272" d="M23.1,57.9l0.1,0.4h0l0.1-0.4l1.5-4.5H26l-2.3,6.3h-0.9l-2.4-6.3h1.2L23.1,57.9z"/>
	<path fill="#727272" d="M37.1,59.9c-0.9,0-1.6-0.3-2.1-0.9s-0.8-1.3-0.8-2.3v-0.3c0-0.9,0.3-1.7,0.8-2.3s1.2-0.9,1.9-0.9
		c0.8,0,1.5,0.3,1.9,0.8s0.6,1.2,0.6,2.1v0.6h-4.1l0,0c0,0.6,0.1,1.2,0.4,1.5s0.7,0.6,1.3,0.6c0.4,0,0.7-0.1,1-0.2s0.5-0.3,0.8-0.5
		l0.5,0.8c-0.2,0.2-0.5,0.4-0.9,0.6S37.7,59.9,37.1,59.9z M37,54.2c-0.4,0-0.7,0.2-1,0.5s-0.4,0.7-0.5,1.2l0,0h2.9v-0.1
		c0-0.5-0.1-0.8-0.3-1.1S37.4,54.2,37,54.2z"/>
	<path fill="#727272" d="M59.9,53.4l0.1,0.8c0.2-0.3,0.5-0.5,0.8-0.7s0.7-0.2,1.1-0.2s0.8,0.1,1.1,0.3s0.5,0.5,0.7,0.9
		c0.2-0.4,0.5-0.6,0.8-0.9s0.7-0.3,1.1-0.3c0.6,0,1.2,0.2,1.5,0.7s0.6,1.1,0.6,2v3.8h-1.2v-3.8c0-0.6-0.1-1.1-0.3-1.3
		s-0.5-0.4-1-0.4c-0.4,0-0.7,0.1-1,0.4s-0.4,0.6-0.4,1v0v4h-1.2v-3.8c0-0.6-0.1-1-0.3-1.3s-0.5-0.4-1-0.4c-0.4,0-0.6,0.1-0.9,0.2
		s-0.4,0.3-0.5,0.6v4.7h-1.2v-6.3L59.9,53.4L59.9,53.4z"/>
	<path fill="#727272" d="M80.9,59.8c0-0.2-0.1-0.4-0.1-0.5s0-0.3,0-0.4c-0.2,0.3-0.5,0.6-0.8,0.8s-0.7,0.3-1.1,0.3
		c-0.7,0-1.2-0.2-1.5-0.5s-0.5-0.8-0.5-1.4c0-0.6,0.2-1.1,0.7-1.4s1.2-0.5,2-0.5h1.3v-0.6c0-0.4-0.1-0.7-0.3-0.9s-0.5-0.3-1-0.3
		c-0.4,0-0.7,0.1-0.9,0.3s-0.3,0.4-0.3,0.7l-1.1,0l0,0c0-0.5,0.2-0.9,0.6-1.3s1.1-0.6,1.8-0.6c0.7,0,1.3,0.2,1.7,0.5
		s0.7,0.9,0.7,1.6v3.1c0,0.2,0,0.4,0,0.7s0.1,0.4,0.1,0.6L80.9,59.8L80.9,59.8z M78.9,58.9c0.4,0,0.8-0.1,1.1-0.3s0.6-0.5,0.7-0.7
		v-1h-1.3c-0.5,0-0.8,0.1-1.1,0.4s-0.4,0.5-0.4,0.8c0,0.3,0.1,0.5,0.3,0.7S78.6,58.9,78.9,58.9z"/>
	<path fill="#727272" d="M94.1,54.4l-0.6,0c-0.3,0-0.6,0.1-0.8,0.2s-0.4,0.3-0.5,0.6v4.5h-1.2v-6.3h1l0.1,0.9
		c0.2-0.3,0.4-0.6,0.7-0.8s0.6-0.3,0.9-0.3c0.1,0,0.2,0,0.2,0s0.1,0,0.2,0L94.1,54.4z"/>
	<path fill="#727272" d="M104.6,56.8H104v2.9h-1.2v-9.1h1.2v5.3h0.6l1.9-2.5h1.4l-2.3,2.9l2.5,3.4h-1.4L104.6,56.8z"/>
	<path fill="#727272" d="M119.1,59.9c-0.9,0-1.6-0.3-2.1-0.9s-0.8-1.3-0.8-2.3v-0.3c0-0.9,0.3-1.7,0.8-2.3s1.2-0.9,1.9-0.9
		c0.8,0,1.5,0.3,1.9,0.8s0.6,1.2,0.6,2.1v0.6h-4.1l0,0c0,0.6,0.1,1.2,0.4,1.5s0.7,0.6,1.3,0.6c0.4,0,0.7-0.1,1-0.2s0.5-0.3,0.8-0.5
		l0.5,0.8c-0.2,0.2-0.5,0.4-0.9,0.6S119.6,59.9,119.1,59.9z M118.9,54.2c-0.4,0-0.7,0.2-1,0.5s-0.4,0.7-0.5,1.2l0,0h2.9v-0.1
		c0-0.5-0.1-0.8-0.3-1.1S119.4,54.2,118.9,54.2z"/>
	<path fill="#727272" d="M131.9,51.9v1.5h1.2v0.9h-1.2v3.8c0,0.3,0.1,0.5,0.2,0.6s0.3,0.2,0.5,0.2c0.1,0,0.1,0,0.2,0s0.1,0,0.2-0.1
		l0.2,0.8c-0.1,0.1-0.2,0.1-0.4,0.2s-0.3,0.1-0.5,0.1c-0.5,0-0.8-0.1-1.1-0.4s-0.4-0.7-0.4-1.3v-3.8h-1v-0.9h1v-1.5H131.9z"/>
	<path fill="#727272" d="M147.3,56.8c0,0.9-0.2,1.7-0.7,2.2s-1,0.8-1.8,0.8c-0.4,0-0.7-0.1-1-0.2s-0.5-0.3-0.8-0.6v3.1h-1.2v-8.8
		h0.9l0.2,0.8c0.2-0.3,0.5-0.5,0.8-0.7s0.7-0.2,1.1-0.2c0.8,0,1.4,0.3,1.8,0.9s0.7,1.4,0.7,2.5L147.3,56.8L147.3,56.8z M146.2,56.7
		c0-0.7-0.1-1.3-0.4-1.8s-0.7-0.7-1.3-0.7c-0.3,0-0.6,0.1-0.9,0.2s-0.4,0.4-0.6,0.6v3.1c0.1,0.3,0.3,0.5,0.6,0.6s0.5,0.2,0.9,0.2
		c0.5,0,1-0.2,1.2-0.6s0.4-0.9,0.4-1.5L146.2,56.7L146.2,56.7z"/>
	<path fill="#727272" d="M157.5,59.8h-1.2v-9.1h1.2V59.8z"/>
	<path fill="#727272" d="M170.8,59.8c0-0.2-0.1-0.4-0.1-0.5s0-0.3,0-0.4c-0.2,0.3-0.5,0.6-0.8,0.8s-0.7,0.3-1.1,0.3
		c-0.7,0-1.2-0.2-1.5-0.5s-0.5-0.8-0.5-1.4c0-0.6,0.2-1.1,0.7-1.4s1.2-0.5,2-0.5h1.3v-0.6c0-0.4-0.1-0.7-0.3-0.9s-0.5-0.3-1-0.3
		c-0.4,0-0.7,0.1-0.9,0.3s-0.3,0.4-0.3,0.7l-1.1,0l0,0c0-0.5,0.2-0.9,0.6-1.3s1.1-0.6,1.8-0.6c0.7,0,1.3,0.2,1.7,0.5
		s0.7,0.9,0.7,1.6v3.1c0,0.2,0,0.4,0,0.7s0.1,0.4,0.1,0.6L170.8,59.8L170.8,59.8z M168.9,58.9c0.4,0,0.8-0.1,1.1-0.3
		s0.6-0.5,0.7-0.7v-1h-1.3c-0.5,0-0.8,0.1-1.1,0.4s-0.4,0.5-0.4,0.8c0,0.3,0.1,0.5,0.3,0.7S168.5,58.9,168.9,58.9z"/>
	<path fill="#727272" d="M183.6,59c0.4,0,0.7-0.1,0.9-0.4s0.4-0.5,0.4-0.9h1l0,0c0,0.5-0.2,1-0.7,1.5s-1,0.6-1.7,0.6
		c-0.9,0-1.6-0.3-2.1-0.9s-0.7-1.4-0.7-2.3v-0.2c0-0.9,0.2-1.6,0.7-2.3s1.2-0.9,2.1-0.9c0.7,0,1.3,0.2,1.7,0.7s0.7,1,0.7,1.6l0,0h-1
		c0-0.4-0.1-0.7-0.4-1s-0.6-0.4-1-0.4c-0.6,0-1,0.2-1.2,0.7s-0.4,1-0.4,1.6v0.2c0,0.6,0.1,1.2,0.4,1.6S183,59,183.6,59z"/>
	<path fill="#727272" d="M197.5,59.9c-0.9,0-1.6-0.3-2.1-0.9s-0.8-1.3-0.8-2.3v-0.3c0-0.9,0.3-1.7,0.8-2.3s1.2-0.9,1.9-0.9
		c0.8,0,1.5,0.3,1.9,0.8s0.6,1.2,0.6,2.1v0.6h-4.1l0,0c0,0.6,0.1,1.2,0.4,1.5s0.7,0.6,1.3,0.6c0.4,0,0.7-0.1,1-0.2s0.5-0.3,0.8-0.5
		l0.5,0.8c-0.2,0.2-0.5,0.4-0.9,0.6S198,59.9,197.5,59.9z M197.3,54.2c-0.4,0-0.7,0.2-1,0.5s-0.4,0.7-0.5,1.2l0,0h2.9v-0.1
		c0-0.5-0.1-0.8-0.3-1.1S197.8,54.2,197.3,54.2z"/>
</g>
</svg>
